<svg width="20" height="20" viewBox="0 0 20 20" fill="none" xmlns="http://www.w3.org/2000/svg">
  <g clip-path="url(#clip0_1634_41411)">
    <path fill-rule="evenodd" clip-rule="evenodd" d="M12.9419 4.55806C12.6979 4.31398 12.3021 4.31398 12.0581 4.55806C11.814 4.80214 11.814 5.19786 12.0581 5.44194L15.9911 9.375H2.5C2.15482 9.375 1.875 9.65482 1.875 10C1.875 10.3452 2.15482 10.625 2.5 10.625H15.9911L12.0581 14.5581C11.814 14.8021 11.814 15.1979 12.0581 15.4419C12.3021 15.686 12.6979 15.686 12.9419 15.4419L17.9419 10.4419C18.064 10.3199 18.125 10.16 18.125 10C18.125 9.91526 18.1081 9.83445 18.0776 9.76076C18.0478 9.68872 18.0039 9.62112 17.946 9.56216M12.9419 4.55806L17.9415 9.55767L12.9419 4.55806Z" fill="#222222" />
  </g>
  <defs>
    <clipPath id="clip0_1634_41411">
      <rect width="16.6667" height="16.6667" fill="white" transform="translate(1.66699 1.66675)" />
    </clipPath>
  </defs>
</svg>
  