<svg width="23" height="78" viewBox="0 0 23 78" fill="none" xmlns="http://www.w3.org/2000/svg">
  <path d="M15.0844 4.95672C16.707 7.89063 18.2523 10.7124 19.807 13.5262C20.1145 14.0887 20.3321 14.4853 20.834 15.1265C21.2017 15.6067 22.0036 16.6081 22.4363 16.1032C22.7503 15.649 22.9155 15.2868 22.476 14.2565C21.3275 11.6019 19.7926 9.14055 18.2831 6.69028C16.9486 4.52753 15.898 2.89882 14.6041 1.05539C13.9997 0.194488 13.3322 0.204799 12.6697 0.917075C12.0754 1.55654 11.4541 2.20235 10.9909 2.94126C9.30628 5.59627 7.69751 8.28439 6.05395 10.9694C5.84772 11.3017 5.66696 11.5485 5.47795 11.9788C5.25399 12.5024 5.06193 12.871 5.51538 13.1835C5.94353 13.4849 6.49806 12.991 6.72797 12.6871C8.70497 10.1898 12.6973 4.97074 12.973 4.74115C13.2085 6.64755 13.4664 8.40689 13.6262 10.1837C14.6801 22.5633 14.8418 34.9155 12.0661 47.1622C9.8692 56.8565 6.56254 66.1269 1.82994 74.8836C1.55378 75.4026 1.31869 75.9515 1.10262 76.4845C0.799215 77.2027 0.768405 77.6296 1.12875 77.811C1.85123 78.0599 2.18103 77.6247 2.47425 77.3002C3.06858 76.6607 3.53502 75.887 3.99034 75.1387C9.97653 65.065 13.4317 54.098 15.4593 42.6348C17.5413 30.8695 16.9102 19.1329 15.2778 7.41178C15.1682 6.7969 15.0396 5.25084 15.0844 4.95672Z" fill="black" />
</svg>
  