<svg width="24" height="24" viewBox="0 0 24 24" fill="none" xmlns="http://www.w3.org/2000/svg">
  <path fill-rule="evenodd" clip-rule="evenodd" d="M9.5 6.00293C9.5 4.62222 10.6193 3.50293 12 3.50293C13.3807 3.50293 14.5 4.62222 14.5 6.00293V6.50195H9.5V6.00293ZM8.5 7.50195V9.00293C8.5 9.27907 8.72386 9.50293 9 9.50293C9.27614 9.50293 9.5 9.27907 9.5 9.00293V7.50195H14.5V9.00293C14.5 9.27907 14.7239 9.50293 15 9.50293C15.2761 9.50293 15.5 9.27907 15.5 9.00293V7.50195H17.538L18.461 19.502H5.54092L6.46399 7.50195H8.5ZM8.5 6.50195V6.00293C8.5 4.06993 10.067 2.50293 12 2.50293C13.933 2.50293 15.5 4.06993 15.5 6.00293V6.50195H18.001C18.2622 6.50195 18.4795 6.70311 18.4995 6.9636L19.4995 19.9636C19.5102 20.1025 19.4625 20.2395 19.3678 20.3417C19.2732 20.4439 19.1402 20.502 19.001 20.502H5.00098C4.86171 20.502 4.72875 20.4439 4.63412 20.3417C4.53949 20.2395 4.49177 20.1025 4.50245 19.9636L5.50245 6.9636C5.52249 6.70311 5.73971 6.50195 6.00098 6.50195H8.5Z" fill="#F37234" />
</svg>
  