<svg width="32" height="32" viewBox="0 0 32 32" fill="none" xmlns="http://www.w3.org/2000/svg">
  <path d="M16 28C22.6274 28 28 22.6274 28 16C28 9.37258 22.6274 4 16 4C9.37258 4 4 9.37258 4 16C4 22.6274 9.37258 28 16 28Z" fill="white" stroke="#9C9C9C" stroke-width="2" stroke-miterlimit="10" stroke-linecap="square" stroke-linejoin="round" />
  <path d="M10 11H12.2V18H19.5333L21 12.5H13" stroke="#9C9C9C" stroke-width="2" stroke-miterlimit="10" stroke-linecap="round" stroke-linejoin="round" />
  <path d="M12.5 23C13.3284 23 14 22.3284 14 21.5C14 20.6716 13.3284 20 12.5 20C11.6716 20 11 20.6716 11 21.5C11 22.3284 11.6716 23 12.5 23Z" fill="#9C9C9C" />
  <path d="M19.5 23C20.3284 23 21 22.3284 21 21.5C21 20.6716 20.3284 20 19.5 20C18.6716 20 18 20.6716 18 21.5C18 22.3284 18.6716 23 19.5 23Z" fill="#9C9C9C" />
</svg>
  