<svg width="32" height="32" viewBox="0 0 32 32" fill="none" xmlns="http://www.w3.org/2000/svg">
  <path d="M16 28C22.6274 28 28 22.6274 28 16C28 9.37258 22.6274 4 16 4C9.37258 4 4 9.37258 4 16C4 22.6274 9.37258 28 16 28Z" stroke="white" stroke-width="2" stroke-miterlimit="10" stroke-linecap="square" stroke-linejoin="round" />
  <path fill-rule="evenodd" clip-rule="evenodd" d="M18.3536 11.6464C18.1583 11.4512 17.8417 11.4512 17.6464 11.6464C17.4512 11.8417 17.4512 12.1583 17.6464 12.3536L20.7929 15.5H10C9.72386 15.5 9.5 15.7239 9.5 16C9.5 16.2761 9.72386 16.5 10 16.5H20.7929L17.6464 19.6464C17.4512 19.8417 17.4512 20.1583 17.6464 20.3536C17.8417 20.5488 18.1583 20.5488 18.3536 20.3536L22.3536 16.3536C22.4512 16.2559 22.5 16.128 22.5 16C22.5 15.9322 22.4865 15.8676 22.4621 15.8086C22.4382 15.751 22.4031 15.6969 22.3568 15.6497M18.3536 11.6464L22.3532 15.6461L18.3536 11.6464Z" fill="white" />
  <path d="M18.3536 11.6464C18.1583 11.4512 17.8417 11.4512 17.6464 11.6464C17.4512 11.8417 17.4512 12.1583 17.6464 12.3536L20.7929 15.5H10C9.72386 15.5 9.5 15.7239 9.5 16C9.5 16.2761 9.72386 16.5 10 16.5H20.7929L17.6464 19.6464C17.4512 19.8417 17.4512 20.1583 17.6464 20.3536C17.8417 20.5488 18.1583 20.5488 18.3536 20.3536L22.3536 16.3536C22.4512 16.2559 22.5 16.128 22.5 16C22.5 15.9322 22.4865 15.8676 22.4621 15.8086C22.4382 15.751 22.4031 15.6969 22.3568 15.6497L18.3536 11.6464ZM18.3536 11.6464L22.3532 15.6461L18.3536 11.6464Z" stroke="white" stroke-linecap="round" stroke-linejoin="round" />
</svg>
  