<svg width="24" height="24" viewBox="0 0 24 24" fill="none" xmlns="http://www.w3.org/2000/svg">
  <path d="M7 5H9.8V13.9091H19.1333L21 6.90909H9.8" stroke="#F37234" stroke-width="1.3" stroke-miterlimit="10" stroke-linecap="round" stroke-linejoin="round" />
  <path d="M10.8178 19.0044C11.5207 19.0044 12.0905 18.4346 12.0905 17.7317C12.0905 17.0288 11.5207 16.459 10.8178 16.459C10.1149 16.459 9.54504 17.0288 9.54504 17.7317C9.54504 18.4346 10.1149 19.0044 10.8178 19.0044Z" fill="#F37234" />
  <path d="M17.1804 19.0044C17.8834 19.0044 18.4532 18.4346 18.4532 17.7317C18.4532 17.0288 17.8834 16.459 17.1804 16.459C16.4775 16.459 15.9077 17.0288 15.9077 17.7317C15.9077 18.4346 16.4775 19.0044 17.1804 19.0044Z" fill="#F37234" />
  <line x1="1.65" y1="8.35" x2="7.35" y2="8.35" stroke="#F37234" stroke-width="1.3" stroke-linecap="round" />
  <line x1="3.65" y1="10.35" x2="7.35" y2="10.35" stroke="#F37234" stroke-width="1.3" stroke-linecap="round" />
  <line x1="5.65" y1="12.35" x2="7.35" y2="12.35" stroke="#F37234" stroke-width="1.3" stroke-linecap="round" />
</svg>
  