<svg width="32" height="32" viewBox="0 0 32 32" fill="none" xmlns="http://www.w3.org/2000/svg">
  <path d="M17.9613 27.5988C11.4984 27.5988 6.25113 22.3932 6.25113 15.9816C6.25113 9.56999 11.4984 4.36439 17.9613 4.36439C20.7158 4.36439 23.2548 5.32613 25.2706 6.91376L27.0248 5.17347C24.5628 3.14313 21.4082 1.92188 17.9613 1.92188C10.1443 1.92188 3.78906 8.22661 3.78906 15.9816C3.78906 23.7366 10.1443 30.0413 17.9613 30.0413C21.3621 30.0413 24.4858 28.8506 26.9325 26.866L25.1783 25.1257C23.1932 26.6828 20.685 27.5988 17.9613 27.5988Z" fill="white" />
  <path d="M18.2072 6.16406C16.5146 6.16406 14.9296 6.5915 13.5293 7.32426L11.375 8.51498L16.1145 16.0562L11.3904 23.5975L13.437 24.7271C14.8681 25.5057 16.4992 25.9484 18.238 25.9484C23.7315 25.9484 28.2094 21.5061 28.2094 16.0562C28.2094 10.6064 23.7161 6.16406 18.2072 6.16406ZM18.2072 23.5212C16.9916 23.5212 15.8529 23.2311 14.8373 22.7273L19.0074 16.0715L14.8373 9.40039C15.8529 8.89662 17.007 8.60657 18.2072 8.60657C22.3466 8.60657 25.7165 11.9498 25.7165 16.0562C25.7165 20.1627 22.3466 23.5212 18.2072 23.5212Z" fill="white" />
</svg>
  