<svg width="114" height="32" viewBox="0 0 114 32" fill="none" xmlns="http://www.w3.org/2000/svg">
<path d="M18.2748 25.5501C12.8695 25.5501 8.48101 21.1811 8.48101 15.8C8.48101 10.4189 12.8695 6.04995 18.2748 6.04995C20.5784 6.04995 22.7019 6.85711 24.3878 8.18958L25.8549 6.72899C23.7958 5.02497 21.1575 4 18.2748 4C11.737 4 6.42188 9.29142 6.42188 15.8C6.42188 22.3086 11.737 27.6 18.2748 27.6C21.1189 27.6 23.7315 26.6007 25.7777 24.9351L24.3106 23.4745C22.6504 24.7813 20.5527 25.5501 18.2748 25.5501Z" fill="#383838"/>
<path d="M18.4817 7.5625C17.066 7.5625 15.7405 7.92124 14.5693 8.53622L12.7676 9.53557L16.7314 15.8648L12.7804 22.194L14.4921 23.1421C15.689 23.7955 17.0532 24.1671 18.5074 24.1671C23.1019 24.1671 26.8469 20.4387 26.8469 15.8648C26.8469 11.2908 23.089 7.5625 18.4817 7.5625ZM18.4817 22.1299C17.465 22.1299 16.5126 21.8865 15.6632 21.4637L19.1509 15.8776L15.6632 10.2787C16.5126 9.85588 17.4778 9.61245 18.4817 9.61245C21.9436 9.61245 24.762 12.4183 24.762 15.8648C24.762 19.3113 21.9436 22.1299 18.4817 22.1299Z" fill="#383838"/>
<path d="M32.9844 21.077V10.4941H35.3524C36.0216 10.4941 36.575 10.507 37.0126 10.5454C38.0936 10.6223 38.9945 10.8913 39.728 11.3654C40.3715 11.7625 40.8992 12.3775 41.311 13.2103C41.7228 14.0431 41.9287 14.9015 41.9287 15.8112C41.9287 16.6696 41.7614 17.4768 41.4397 18.2071C41.118 18.9245 40.6546 19.5139 40.0755 19.9751C39.6894 20.2954 39.2519 20.5389 38.7886 20.6926C38.3381 20.8464 37.8619 20.9489 37.3472 21.0001C36.8453 21.0386 36.2146 21.0642 35.4553 21.0642H32.9844V21.077ZM34.9663 19.3473H35.9573C37.2699 19.3473 38.248 19.0783 38.9044 18.5274C39.5607 17.9764 39.8825 17.0796 39.8825 15.8112C39.8825 14.6581 39.5607 13.7869 38.9044 13.1719C38.248 12.5569 37.3343 12.2494 36.1503 12.2494H34.9792V19.3473H34.9663Z" fill="#383838"/>
<path d="M44.4504 19.8983C44.1801 19.5395 43.9999 19.1295 43.8841 18.6811C43.7683 18.2199 43.7168 17.669 43.7168 17.0155V10.4941H45.7116V16.8746C45.7116 17.3358 45.7245 17.6946 45.7631 17.938C45.8017 18.1943 45.866 18.4121 45.9818 18.6042C46.1363 18.9117 46.3679 19.1424 46.6639 19.3089C46.9599 19.4755 47.3074 19.5652 47.7064 19.5652C48.1053 19.5652 48.4528 19.4755 48.7488 19.3089C49.0448 19.1424 49.2765 18.8989 49.4309 18.6042C49.5339 18.4121 49.6111 18.1943 49.6497 17.938C49.6883 17.6818 49.7012 17.323 49.7012 16.8746V10.4941H51.6959V17.0155C51.6959 17.669 51.6445 18.2199 51.5286 18.6811C51.4128 19.1424 51.2198 19.5523 50.9624 19.8983C50.6406 20.3467 50.1902 20.6926 49.6111 20.9489C49.0319 21.2051 48.4013 21.3204 47.7192 21.3204C47.0372 21.3204 46.3937 21.1923 45.8274 20.9489C45.2225 20.6926 44.7721 20.3467 44.4504 19.8983Z" fill="#383838"/>
<path d="M55.8668 21.077V12.2622H53.2285V10.4941H60.4998V12.2622H57.8616V21.077H55.8668Z" fill="#383838"/>
<path d="M64.4895 21.077V16.9771L60.9375 10.4941H63.1253L65.5319 15.2603L67.9386 10.4941H70.062L66.4586 17.0155V21.0898H64.4895V21.077Z" fill="#383838"/>
<path d="M70.2548 15.825C70.2419 15.0435 70.3706 14.3004 70.628 13.6213C70.8854 12.9423 71.2457 12.3529 71.709 11.8532C72.1724 11.3536 72.7386 10.9692 73.4078 10.6873C74.0771 10.4055 74.8106 10.2773 75.5957 10.2773C76.6124 10.2773 77.5004 10.4952 78.2468 10.9308C78.9932 11.3664 79.5981 11.9942 80.0357 12.8142L78.1953 13.5444C77.5904 12.5451 76.7411 12.0454 75.6471 12.0454C74.9779 12.0326 74.3988 12.1992 73.884 12.5323C73.3692 12.8654 72.9831 13.3138 72.7129 13.8904C72.4426 14.4541 72.3268 15.0947 72.3268 15.7866C72.3268 16.4912 72.4555 17.119 72.7386 17.6956C73.0217 18.2721 73.4207 18.7206 73.9355 19.0537C74.4503 19.3868 75.0423 19.5534 75.6986 19.5405C76.7153 19.5405 77.5647 19.0409 78.2082 18.0287L80.0872 18.7206C79.6625 19.5021 79.0705 20.1299 78.2983 20.6039C77.539 21.078 76.651 21.3086 75.6343 21.3086C74.5532 21.3086 73.6009 21.078 72.7901 20.6039C71.9793 20.1427 71.3487 19.4765 70.9111 18.6437C70.4736 17.8237 70.2548 16.8756 70.2548 15.825Z" fill="#383838"/>
<path d="M80.2793 21.0781L84.6421 10.4824H86.727L91.0254 21.0781H89.0049L87.808 18.0544H83.4581L82.287 21.0781H80.2793ZM84.1016 16.3632H87.1388L86.8557 15.5945C86.5339 14.7104 86.1864 13.7111 85.8261 12.6092L85.6717 12.1224H85.633L85.2083 13.3011C84.9896 13.9289 84.7193 14.6848 84.3976 15.5817L84.1016 16.3632Z" fill="#383838"/>
<path d="M91.6834 21.0772V19.322H95.8274C96.458 19.322 96.9213 19.2323 97.2044 19.0657C97.5004 18.8992 97.642 18.6045 97.642 18.1817C97.642 17.9254 97.5777 17.7076 97.4361 17.5411C97.2945 17.3873 97.1143 17.2592 96.8956 17.1567C96.6639 17.0542 96.3293 16.9517 95.8789 16.8236L94.6563 16.5033C93.9484 16.3111 93.395 16.1317 92.9961 15.9524C92.5843 15.7602 92.2368 15.4527 91.9665 15.0427C91.6963 14.6327 91.5547 14.0818 91.5547 13.3771C91.5547 12.4803 91.8121 11.8012 92.3269 11.3144C92.6615 11.0069 93.0347 10.7891 93.4723 10.6609C93.9227 10.5328 94.5276 10.4688 95.2869 10.4688H98.9032L98.7745 12.2368H95.081C94.5404 12.2368 94.1415 12.3137 93.897 12.4674C93.6524 12.6212 93.5237 12.8774 93.5237 13.2362C93.5366 13.6205 93.6653 13.9024 93.897 14.0818C94.1415 14.2611 94.579 14.4405 95.2097 14.5943L96.4837 14.9146C97.153 15.0811 97.7063 15.2605 98.1568 15.4655C98.5943 15.6577 98.9547 15.9652 99.2378 16.3752C99.521 16.7723 99.6625 17.2976 99.6625 17.9639C99.6625 19.0785 99.2893 19.8857 98.53 20.3982C98.1954 20.6288 97.7964 20.8082 97.3074 20.8979C96.8312 21.0003 96.2135 21.0516 95.4799 21.0516H91.6834V21.0772Z" fill="#383838"/>
<path d="M102.957 21.077V12.2622H100.318V10.4941H107.577V12.2622H104.939V21.077H102.957Z" fill="#383838"/>
</svg>
