<svg width="24" height="24" viewBox="0 0 24 24" fill="none" xmlns="http://www.w3.org/2000/svg">
  <g clip-path="url(#clip0_2882_2060)">
    <path fill-rule="evenodd" clip-rule="evenodd" d="M18.1 9.0002C18.1 10.4002 18.9 11.7002 20.1 12.4002C21.4 13.2002 21.7 14.0002 21.8 14.5002C21.8 16.9002 16.8 18.2002 12 18.2002C7.09995 18.2002 2.19995 16.9002 2.19995 14.5002C2.19995 14.0002 2.49995 13.2002 3.79995 12.4002C4.99995 11.7002 5.79995 10.4002 5.79995 9.0002V8.7002C5.79995 5.4002 8.59995 2.7002 11.9 2.7002C15.3 2.7002 18.1 5.4002 18.1 8.7002V9.0002ZM3.79995 14.5002C3.79995 15.3002 6.89995 16.7002 12 16.7002C17.1 16.7002 20.2 15.3002 20.3 14.5002C20.3 14.3002 20.1 14.0002 19.5 13.7002C17.8 12.7002 16.7 10.9002 16.7 9.0002V8.7002C16.7 6.2002 14.6 4.2002 12 4.2002C9.49995 4.2002 7.39995 6.2002 7.39995 8.7002V9.0002C7.39995 11.0002 6.29995 12.7002 4.59995 13.7002C3.99995 14.0002 3.79995 14.3002 3.79995 14.5002ZM12 19.7002C13.2 19.7002 14.0999 19.3002 14.4 19.0002C14.6999 18.6002 15.0999 18.6002 15.5 18.9002C15.7999 19.2002 15.8999 19.7002 15.5999 20.0002C14.8999 20.8002 13.5 21.3002 12 21.3002C10.4 21.3002 9.09995 20.8002 8.39995 20.0002C8.09995 19.6002 8.19995 19.2002 8.49995 18.9002C8.89995 18.7002 9.29995 18.7002 9.59995 19.0002C9.89995 19.3002 10.7999 19.7002 12 19.7002Z" fill="#F37234" />
  </g>
  <defs>
    <clipPath id="clip0_2882_2060">
      <rect width="20" height="20" fill="white" transform="translate(2 2)" />
    </clipPath>
  </defs>
</svg>
  