<svg width="24" height="24" viewBox="0 0 24 24" fill="none" xmlns="http://www.w3.org/2000/svg">
  <g clip-path="url(#clip0_2882_1909)">
    <path fill-rule="evenodd" clip-rule="evenodd" d="M20.95 9.075C21.45 9.375 21.75 9.975 21.75 10.575V13.475C21.75 14.075 21.45 14.675 20.95 14.975L19.55 15.775C19.35 15.875 19.25 15.975 19.15 16.175L19.05 16.275C18.95 16.475 18.95 16.675 18.95 16.875V18.575C18.95 19.175 18.65 19.775 18.15 20.075L15.65 21.575C15.15 21.875 14.45 21.875 13.95 21.575L12.55 20.675C12.45 20.575 12.25 20.475 12.05 20.475H11.95C11.8036 20.475 11.7108 20.5286 11.5931 20.5965C11.55 20.6214 11.5036 20.6482 11.45 20.675L10.05 21.575C9.55 21.875 8.85 21.875 8.35 21.575L5.85 20.075C5.35 19.775 5.05 19.175 5.05 18.575V16.875C5.05 16.675 5.05 16.475 4.95 16.275H4.85C4.75 16.075 4.65 15.975 4.45 15.875L3.05 15.075C2.55 14.775 2.25 14.175 2.25 13.575V10.575C2.25 9.975 2.55 9.375 3.05 9.075L4.45 8.275C4.65 8.175 4.75 8.075 4.85 7.875L4.95 7.775C5.05 7.575 5.05 7.375 5.05 7.175V5.475C5.05 4.875 5.35 4.275 5.85 3.975L8.35 2.475C8.85 2.175 9.55 2.175 10.05 2.475L11.45 3.375C11.55 3.475 11.75 3.575 11.95 3.575H12.05C12.25 3.575 12.45 3.475 12.55 3.375L13.95 2.475C14.45 2.175 15.15 2.175 15.65 2.475L18.15 3.975C18.65 4.275 18.95 4.875 18.95 5.475V7.175C18.85 7.375 18.95 7.575 19.05 7.775L19.15 7.875C19.25 8.075 19.35 8.175 19.55 8.275L20.95 9.075ZM18.75 14.475L20.15 13.675C20.2 13.675 20.225 13.65 20.25 13.625C20.275 13.6 20.3 13.575 20.35 13.575V10.575C20.35 10.475 20.25 10.375 20.25 10.375L18.85 9.575C18.45 9.375 18.05 8.975 17.85 8.575L17.75 8.475C17.55 8.075 17.45 7.675 17.45 7.175V5.475C17.45 5.375 17.35 5.275 17.35 5.275L14.85 3.775H14.75L13.35 4.675C12.95 4.975 12.55 5.075 12.05 5.075H11.95C11.55 5.075 11.05 4.875 10.65 4.675L9.25 3.775H9.15L6.65 5.275C6.55 5.375 6.55 5.375 6.55 5.475V7.175C6.55 7.575 6.45 8.075 6.25 8.475V8.575C5.95 8.975 5.65 9.375 5.25 9.575L3.85 10.275C3.7925 10.3325 3.76806 10.3569 3.75767 10.3863C3.75 10.4081 3.75 10.4325 3.75 10.475V13.475C3.75 13.575 3.85 13.675 3.85 13.675L5.25 14.475C5.65 14.675 6.05 15.075 6.25 15.475V15.575C6.45 15.975 6.55 16.375 6.55 16.875V18.575C6.55 18.675 6.65 18.775 6.65 18.775L9.15 20.275H9.25L10.65 19.375C11.05 19.075 11.45 18.975 11.95 18.975H12.05C12.45 18.975 12.95 19.175 13.35 19.375L14.75 20.275H14.85L17.25 18.775C17.3075 18.7175 17.3319 18.6931 17.3423 18.6637C17.35 18.6419 17.35 18.6175 17.35 18.575V16.875C17.35 16.475 17.45 15.975 17.65 15.575L17.75 15.475C18.05 15.075 18.35 14.675 18.75 14.475ZM8.25 12.075C8.25 9.975 9.95 8.275 12.05 8.275C14.05 8.275 15.75 9.975 15.85 12.075C15.85 14.175 14.15 15.875 12.05 15.875C9.95 15.875 8.25 14.175 8.25 12.075ZM9.85 12.075C9.85 13.275 10.85 14.275 12.05 14.275C13.25 14.275 14.25 13.275 14.25 12.075C14.25 10.875 13.25 9.875 12.05 9.875C10.85 9.875 9.85 10.875 9.85 12.075Z" fill="#F37234" />
  </g>
  <defs>
    <clipPath id="clip0_2882_1909">
      <rect width="20" height="20" fill="white" transform="translate(2 2)" />
    </clipPath>
  </defs>
</svg>
  